<svg width="36" height="36" fill="none" xmlns="http://www.w3.org/2000/svg" class="wallet-icon"><g clip-path="url(#wallet-polkadot_svg__a)"><circle cx="18" cy="18.11" r="18" fill="#E8662D"></circle><path d="M18 6.408c-4.402 0-8 3.557-8 7.955 0 .884.148 1.747.423 2.589.19.568.826.884 1.418.694.572-.189.89-.82.699-1.41a5.574 5.574 0 0 1-.318-2.04c.085-2.968 2.498-5.41 5.482-5.557 3.323-.168 6.074 2.463 6.074 5.725 0 3.051-2.413 5.555-5.44 5.724 0 0-1.12.063-1.671.147-.275.042-.487.084-.635.105-.064.021-.127-.042-.106-.105l.19-.926 1.038-4.756a1.103 1.103 0 0 0-2.16-.463s-2.496 11.575-2.518 11.7a1.103 1.103 0 0 0 2.16.464c.02-.126.359-1.663.359-1.663a2.805 2.805 0 0 1 2.37-2.188c.254-.042 1.249-.106 1.249-.106C22.74 21.982 26 18.551 26 14.363c0-4.398-3.598-7.955-8-7.955Zm.572 18.31c-.72-.148-1.44.294-1.588 1.03a1.325 1.325 0 0 0 1.037 1.58c.72.146 1.44-.295 1.588-1.032.148-.737-.297-1.431-1.037-1.578Z" fill="#fff"></path></g><defs><clipPath id="wallet-polkadot_svg__a"><path fill="#fff" d="M0 0h36v36H0z"></path></clipPath></defs></svg>