<svg width="36" height="36" fill="none" xmlns="http://www.w3.org/2000/svg" class="wallet-icon"><g clip-path="url(#wallet-subwallet_svg__a)"><circle cx="18" cy="18.11" r="18" fill="#F7F0E8"></circle><g clip-path="url(#wallet-subwallet_svg__b)"><mask id="wallet-subwallet_svg__c" maskUnits="userSpaceOnUse" x="3" y="3" width="31" height="31" style="mask-type: alpha;"><path d="M33.429 3.857H3.857V33.43H33.43V3.857Z" fill="#C4C4C4"></path></mask><g mask="url(#wallet-subwallet_svg__c)"><path d="m23.269 18.051-.004-3.657L9.842 7.437v10.61l8.593 4.591 3.14-1.383-9.455-5.017.007-4.02 11.142 5.833Z" fill="url(#wallet-subwallet_svg__d)"></path><path d="M15.06 13.753v1.25l-2.95 1.263.02-4.097 2.93 1.584Z" fill="url(#wallet-subwallet_svg__e)"></path><path d="m15.07 24.12 6.506-2.865-9.456-4.992 2.922-1.26 12.156 6.35-12.104 5.281-.024-2.514Z" fill="url(#wallet-subwallet_svg__f)"></path><path d="m12.13 23.272 2.905-1.253.063 4.611 12.1-5.277v3.936L12.106 31.9l.025-8.628Z" fill="url(#wallet-subwallet_svg__g)"></path><path d="m9.842 22.082 2.278 1.19-.014 8.614-2.264-1.137v-8.667Z" fill="url(#wallet-subwallet_svg__h)"></path><path d="m12.718 20.8 2.316 1.218-2.914 1.254-2.278-1.19 2.876-1.282Z" fill="url(#wallet-subwallet_svg__i)"></path><path d="m27.198 16.347-.014-3.682-3.912 1.728v3.662l3.926-1.708Z" fill="url(#wallet-subwallet_svg__j)"></path><path d="m9.842 7.437 3.953-1.82 13.395 7.041-3.918 1.736-13.43-6.957Z" fill="url(#wallet-subwallet_svg__k)"></path></g></g></g><defs><linearGradient id="wallet-subwallet_svg__d" x1="6.483" y1="15.038" x2="30.201" y2="15.038" gradientUnits="userSpaceOnUse"><stop stop-color="#FFD4B2"></stop><stop offset="0.36" stop-color="#9ACEB7"></stop><stop offset="0.67" stop-color="#47C8BB"></stop><stop offset="0.89" stop-color="#14C5BE"></stop><stop offset="1" stop-color="#00C4BF"></stop></linearGradient><linearGradient id="wallet-subwallet_svg__e" x1="13.585" y1="17.727" x2="13.585" y2="8.539" gradientUnits="userSpaceOnUse"><stop stop-color="#00FECF"></stop><stop offset="0.08" stop-color="#00E5D0"></stop><stop offset="0.24" stop-color="#00A5D1"></stop><stop offset="0.48" stop-color="#0040D4"></stop><stop offset="0.54" stop-color="#0025D5"></stop><stop offset="1"></stop></linearGradient><linearGradient id="wallet-subwallet_svg__f" x1="12.12" y1="20.818" x2="36.273" y2="20.818" gradientUnits="userSpaceOnUse"><stop stop-color="#FDEC9F"></stop><stop offset="0.08" stop-color="#E4D8A4"></stop><stop offset="0.24" stop-color="#A4A6B2"></stop><stop offset="0.47" stop-color="#3F57C8"></stop><stop offset="0.61" stop-color="#0025D5"></stop><stop offset="1"></stop></linearGradient><linearGradient id="wallet-subwallet_svg__g" x1="7.181" y1="26.627" x2="38.066" y2="26.627" gradientUnits="userSpaceOnUse"><stop offset="0.05" stop-color="#62A5FF"></stop><stop offset="0.45" stop-color="#1032D1"></stop><stop offset="1"></stop></linearGradient><linearGradient id="wallet-subwallet_svg__h" x1="142.609" y1="719.955" x2="179.914" y2="720.439" gradientUnits="userSpaceOnUse"><stop stop-color="#FFD4B2"></stop><stop offset="0.36" stop-color="#9ACEB7"></stop><stop offset="0.67" stop-color="#47C8BB"></stop><stop offset="0.89" stop-color="#14C5BE"></stop><stop offset="1" stop-color="#00C4BF"></stop></linearGradient><linearGradient id="wallet-subwallet_svg__i" x1="9.286" y1="22.036" x2="19.875" y2="22.036" gradientUnits="userSpaceOnUse"><stop stop-color="#00FECF"></stop><stop offset="0.08" stop-color="#00E5D0"></stop><stop offset="0.25" stop-color="#00A5D1"></stop><stop offset="0.49" stop-color="#0040D4"></stop><stop offset="0.56" stop-color="#0025D5"></stop></linearGradient><linearGradient id="wallet-subwallet_svg__j" x1="19.516" y1="15.464" x2="45.581" y2="14.992" gradientUnits="userSpaceOnUse"><stop stop-color="#00FECF"></stop><stop offset="0.05" stop-color="#00E5D0"></stop><stop offset="0.15" stop-color="#00A5D1"></stop><stop offset="0.29" stop-color="#0040D4"></stop><stop offset="0.33" stop-color="#0025D5"></stop></linearGradient><linearGradient id="wallet-subwallet_svg__k" x1="9.842" y1="10.007" x2="42.177" y2="10.007" gradientUnits="userSpaceOnUse"><stop stop-color="#FFD4AF"></stop><stop offset="0.1" stop-color="#E6D5BA"></stop><stop offset="0.31" stop-color="#A7D6D5"></stop><stop offset="0.61" stop-color="#43D9FF"></stop><stop offset="0.63" stop-color="#37B1D0"></stop><stop offset="0.65" stop-color="#2B8CA5"></stop><stop offset="0.67" stop-color="#216B7D"></stop><stop offset="0.7" stop-color="#184E5B"></stop><stop offset="0.72" stop-color="#10353F"></stop><stop offset="0.75" stop-color="#0A2228"></stop><stop offset="0.78" stop-color="#061316"></stop><stop offset="0.82" stop-color="#020809"></stop><stop offset="0.88" stop-color="#010202"></stop><stop offset="1"></stop></linearGradient><clipPath id="wallet-subwallet_svg__a"><path fill="#fff" d="M0 0h36v36H0z"></path></clipPath><clipPath id="wallet-subwallet_svg__b"><path fill="#fff" transform="translate(3.857 3.857)" d="M0 0h29.571v29.571H0z"></path></clipPath></defs></svg>