<svg width="36" height="36" fill="none" xmlns="http://www.w3.org/2000/svg" class="wallet-icon"><circle cx="18" cy="18" r="18" fill="#D5FF5C"></circle><g clip-path="url(#wallet-talisman_svg__a)"><path fill-rule="evenodd" clip-rule="evenodd" d="M24.802 19.374c.228.497.9.672 1.287.286l.708-.709a1.877 1.877 0 0 1 2.653 2.652l-5.736 5.734A7.49 7.49 0 0 1 17.98 30a7.492 7.492 0 0 1-5.914-2.884L6.55 21.602a1.874 1.874 0 1 1 2.653-2.651l.698.698c.378.378 1.034.208 1.258-.278a.727.727 0 0 0 .068-.305v-8.565a1.876 1.876 0 1 1 3.752 0v4.332c0 .373.382.627.738.514a.545.545 0 0 0 .388-.512v-6.96a1.876 1.876 0 0 1 3.751 0v6.96c0 .236.163.441.388.512.356.113.738-.14.738-.514v-4.332a1.876 1.876 0 1 1 3.751 0v8.562c0 .108.025.213.07.31Z" fill="#FD4848"></path><path d="M23.983 23.25S21.295 27 17.98 27s-6.003-3.75-6.003-3.75 2.688-3.75 6.003-3.75c3.316 0 6.003 3.75 6.003 3.75Z" fill="#D5FF5C"></path><path d="M20.781 23.25a2.801 2.801 0 1 1-5.602-.001 2.801 2.801 0 0 1 5.602.001Z" stroke="#FD4848" stroke-width="0.399"></path><path d="M19.656 23.25a1.676 1.676 0 1 1-3.352-.001 1.676 1.676 0 0 1 3.352.001Z" stroke="#FD4848" stroke-width="0.399"></path><path d="M21.907 23.25a3.927 3.927 0 0 1-3.927 3.926 3.927 3.927 0 1 1 3.927-3.926Z" stroke="#FD4848" stroke-width="0.399"></path><path d="M23.033 23.25c0 2.79-2.263 5.05-5.053 5.05a5.052 5.052 0 1 1 0-10.1 5.052 5.052 0 0 1 5.053 5.05Z" stroke="#FD4848" stroke-width="0.399"></path><path d="M18.53 23.25a.55.55 0 1 1-1.101 0 .55.55 0 0 1 1.101 0Z" fill="#162BEB" stroke="#FD4848" stroke-width="0.399"></path><path d="M17.98 24a.75.75 0 1 0 0-1.5.75.75 0 0 0 0 1.5Z" fill="#FD4848"></path><mask id="wallet-talisman_svg__b" maskUnits="userSpaceOnUse" x="11" y="19" width="13" height="8" style="mask-type: alpha;"><path d="M23.983 23.25S21.295 27 17.98 27s-6.003-3.75-6.003-3.75 2.688-3.75 6.003-3.75 6.003 3.75 6.003 3.75Z" fill="#fff"></path></mask><g mask="url(#wallet-talisman_svg__b)"><path d="M23.983 23.25S21.295 27 17.98 27s-6.003-3.75-6.003-3.75 2.688-3.75 6.003-3.75c3.316 0 6.003 3.75 6.003 3.75Z" stroke="#D5FF5C" stroke-width="0.797"></path></g></g><defs><clipPath id="wallet-talisman_svg__a"><path fill="#fff" d="M0 0h36v36H0z"></path></clipPath></defs></svg>