<svg width="14" height="14" viewBox="0 0 14 14" fill="none" xmlns="http://www.w3.org/2000/svg">
<g opacity="0.7">
<path d="M7 13.5C10.5899 13.5 13.5 10.5899 13.5 7C13.5 3.41015 10.5899 0.5 7 0.5C3.41015 0.5 0.5 3.41015 0.5 7C0.5 10.5899 3.41015 13.5 7 13.5Z" stroke="#9E97F7" stroke-linecap="round" stroke-linejoin="round"/>
<path d="M5.5 5.5C5.5 5.20333 5.58797 4.91332 5.7528 4.66665C5.91762 4.41997 6.15189 4.22771 6.42597 4.11418C6.70006 4.00065 7.00166 3.97094 7.29264 4.02882C7.58361 4.0867 7.85088 4.22956 8.06066 4.43934C8.27044 4.64912 8.4133 4.91639 8.47118 5.20737C8.52906 5.49834 8.49935 5.79994 8.38582 6.07403C8.27229 6.34812 8.08003 6.58238 7.83336 6.74721C7.58668 6.91203 7.29667 7 7 7V8" stroke="#9E97F7" stroke-linecap="round" stroke-linejoin="round"/>
<path d="M7 9.5C6.85166 9.5 6.70666 9.54399 6.58332 9.6264C6.45999 9.70881 6.36386 9.82594 6.30709 9.96299C6.25032 10.1 6.23547 10.2508 6.26441 10.3963C6.29335 10.5418 6.36478 10.6754 6.46967 10.7803C6.57456 10.8852 6.7082 10.9567 6.85368 10.9856C6.99917 11.0145 7.14997 10.9997 7.28701 10.9429C7.42406 10.8861 7.54119 10.79 7.6236 10.6667C7.70601 10.5433 7.75 10.3983 7.75 10.25C7.74741 10.0519 7.66756 9.86263 7.52747 9.72253C7.38737 9.58244 7.19811 9.50259 7 9.5Z" fill="#9E97F7"/>
</g>
</svg>
